# xmcd CD database file
#
# Track frame offsets:
#	150
#	23840
#	41157
#	64847
#
# Disc length: 1091 seconds
#
# Revision: 2
# Processed by: cddbd v1.5.2PL0 Copyright (c) Steve Scherf et al.
# Submitted via: CDex 1.70beta3
#
DISCID=30044104
DTITLE=椎名へきる - 長い夢
DYEAR=2010
DGENRE=seiyu
TTITLE0=長い夢
TTITLE1=レスキューミー!
TTITLE2=長い夢 (off vocal)
TTITLE3=レスキューミー! (off vocal)
EXTD=YEAR: 2010
EXTT0=
EXTT1=
EXTT2=
EXTT3=
PLAYORDER=
